%TF.GenerationSoftware,Altium Limited,Altium Designer,23.4.1 (23)*%
G04 Layer_Color=0*
%FSLAX45Y45*%
%MOMM*%
%TF.SameCoordinates,EC373B95-F81A-4979-A11E-F0651E9AEA0C*%
%TF.FilePolarity,Positive*%
%TF.FileFunction,Plated,1,2,PTH,Drill*%
%TF.Part,Single*%
G01*
G75*
%TA.AperFunction,ComponentDrill*%
%ADD56C,1.20000*%
%TA.AperFunction,OtherDrill,Pad Free-27 (68mm,52mm)*%
%ADD57C,3.00000*%
%TA.AperFunction,ComponentDrill*%
%ADD58C,1.00000*%
%TA.AperFunction,OtherDrill,Pad Free-27 (68mm,5mm)*%
%ADD59C,3.00000*%
%TA.AperFunction,OtherDrill,Pad Free-27 (14mm,5mm)*%
%ADD60C,3.00000*%
%TA.AperFunction,OtherDrill,Pad Free-27 (14mm,52mm)*%
%ADD61C,3.00000*%
%TA.AperFunction,ComponentDrill*%
%ADD62C,3.10000*%
%ADD63C,2.60000*%
%TA.AperFunction,ViaDrill,NotFilled*%
%ADD64C,0.50000*%
D56*
X6600000Y1070000D02*
D03*
Y2086000D02*
D03*
Y1578000D02*
D03*
Y3102000D02*
D03*
Y2594000D02*
D03*
Y4118000D02*
D03*
Y4626000D02*
D03*
Y3610000D02*
D03*
D57*
X6800000Y5200000D02*
D03*
D58*
X4526000Y4110000D02*
D03*
X4272000D02*
D03*
X4018000D02*
D03*
X3764000D02*
D03*
X3510000D02*
D03*
X3256000D02*
D03*
X2748000D02*
D03*
X1478000D02*
D03*
X1732000D02*
D03*
X1986000D02*
D03*
X2240000D02*
D03*
X2494000D02*
D03*
X3002000D02*
D03*
X4780000D02*
D03*
X5034000D02*
D03*
X4526000Y1570000D02*
D03*
X4272000D02*
D03*
X4018000D02*
D03*
X3764000D02*
D03*
X3510000D02*
D03*
X3256000D02*
D03*
X2748000D02*
D03*
X1478000D02*
D03*
X1732000D02*
D03*
X1986000D02*
D03*
X2240000D02*
D03*
X2494000D02*
D03*
X3002000D02*
D03*
X4780000D02*
D03*
X5034000D02*
D03*
X2748000Y1008000D02*
D03*
X3002000D02*
D03*
X3256000D02*
D03*
X3510000D02*
D03*
X3764000D02*
D03*
X4018000D02*
D03*
X4272000D02*
D03*
X4526000D02*
D03*
X4780000D02*
D03*
X5034000D02*
D03*
X2748000Y4672000D02*
D03*
X3002000D02*
D03*
X3256000D02*
D03*
X3510000D02*
D03*
X3764000D02*
D03*
X4018000D02*
D03*
X4272000D02*
D03*
X4526000D02*
D03*
X4780000D02*
D03*
X5034000D02*
D03*
X2494000Y1008000D02*
D03*
X2240000D02*
D03*
X1986000D02*
D03*
X1732000D02*
D03*
X1478000D02*
D03*
X2494000Y4672000D02*
D03*
X2240000D02*
D03*
X1986000D02*
D03*
X1732000D02*
D03*
X1478000D02*
D03*
D59*
X6800000Y500000D02*
D03*
D60*
X1400000D02*
D03*
D61*
Y5200000D02*
D03*
D62*
X606900Y1501749D02*
D03*
D63*
Y904849D02*
D03*
X1089500Y1209649D02*
D03*
D64*
X2200000Y500000D02*
D03*
X5800000Y2900000D02*
D03*
X5400000Y1400000D02*
D03*
X2300000Y1900000D02*
D03*
X2000000D02*
D03*
X5470000Y2710000D02*
D03*
X1610000Y4400000D02*
D03*
%TF.MD5,523914c17f8c9892b75b4714d2eb1bd6*%
M02*
