%TF.GenerationSoftware,Altium Limited,Altium Designer,23.4.1 (23)*%
G04 Layer_Physical_Order=1*
G04 Layer_Color=255*
%FSLAX45Y45*%
%MOMM*%
%TF.SameCoordinates,EC373B95-F81A-4979-A11E-F0651E9AEA0C*%
%TF.FilePolarity,Positive*%
%TF.FileFunction,Copper,L1,Top,Signal*%
%TF.Part,Single*%
G01*
G75*
%TA.AperFunction,SMDPad,CuDef*%
%ADD10R,3.50000X3.00000*%
%ADD11R,1.00000X1.30000*%
%ADD12R,2.00000X1.45000*%
%ADD13R,1.40000X4.00000*%
%ADD14R,1.10000X2.20000*%
%ADD15R,10.80000X7.00000*%
%ADD16R,2.00000X5.00000*%
%ADD17R,1.35000X1.90000*%
%TA.AperFunction,Conductor*%
%ADD18C,0.80000*%
%ADD19C,0.50000*%
%TA.AperFunction,ComponentPad*%
%ADD20C,2.00000*%
%TA.AperFunction,ViaPad*%
%ADD21C,5.00000*%
%TA.AperFunction,ComponentPad*%
%ADD22C,1.40000*%
%ADD23O,5.00000X4.00000*%
%ADD24C,4.00000*%
%TA.AperFunction,ViaPad*%
%ADD25C,1.00000*%
G36*
X7200000Y100000D02*
X100000D01*
X100000Y5600000D01*
X7200000D01*
Y100000D01*
D02*
G37*
%LPC*%
G36*
X6822036Y5480000D02*
X6777963D01*
X6734433Y5473105D01*
X6692517Y5459486D01*
X6653248Y5439478D01*
X6617592Y5413572D01*
X6586428Y5382408D01*
X6560522Y5346752D01*
X6540514Y5307483D01*
X6526894Y5265567D01*
X6520000Y5222037D01*
Y5177963D01*
X6526894Y5134433D01*
X6540514Y5092517D01*
X6560522Y5053248D01*
X6586428Y5017592D01*
X6617592Y4986428D01*
X6653248Y4960522D01*
X6692517Y4940514D01*
X6734433Y4926895D01*
X6777963Y4920000D01*
X6822036D01*
X6865567Y4926895D01*
X6907483Y4940514D01*
X6946752Y4960522D01*
X6982408Y4986428D01*
X7013572Y5017592D01*
X7039477Y5053248D01*
X7059486Y5092517D01*
X7073105Y5134433D01*
X7080000Y5177963D01*
Y5222037D01*
X7073105Y5265567D01*
X7059486Y5307483D01*
X7039477Y5346752D01*
X7013572Y5382408D01*
X6982408Y5413572D01*
X6946752Y5439478D01*
X6907483Y5459486D01*
X6865567Y5473105D01*
X6822036Y5480000D01*
D02*
G37*
G36*
X1422037D02*
X1377963D01*
X1334433Y5473105D01*
X1292517Y5459486D01*
X1253248Y5439478D01*
X1217592Y5413572D01*
X1186428Y5382408D01*
X1160522Y5346752D01*
X1140514Y5307483D01*
X1126895Y5265567D01*
X1120000Y5222037D01*
Y5177963D01*
X1126895Y5134433D01*
X1140514Y5092517D01*
X1160522Y5053248D01*
X1186428Y5017592D01*
X1217592Y4986428D01*
X1253248Y4960522D01*
X1292517Y4940514D01*
X1334433Y4926895D01*
X1377963Y4920000D01*
X1422037D01*
X1465567Y4926895D01*
X1507483Y4940514D01*
X1546752Y4960522D01*
X1582408Y4986428D01*
X1613572Y5017592D01*
X1639478Y5053248D01*
X1659486Y5092517D01*
X1673105Y5134433D01*
X1680000Y5177963D01*
Y5222037D01*
X1673105Y5265567D01*
X1659486Y5307483D01*
X1639478Y5346752D01*
X1613572Y5382408D01*
X1582408Y5413572D01*
X1546752Y5439478D01*
X1507483Y5459486D01*
X1465567Y5473105D01*
X1422037Y5480000D01*
D02*
G37*
G36*
X5047165Y4772000D02*
X5020835D01*
X4995401Y4765185D01*
X4972599Y4752020D01*
X4953980Y4733401D01*
X4940815Y4710598D01*
X4934000Y4685165D01*
Y4658835D01*
X4940815Y4633402D01*
X4953980Y4610599D01*
X4972599Y4591980D01*
X4995401Y4578815D01*
X5020835Y4572000D01*
X5047165D01*
X5072598Y4578815D01*
X5095401Y4591980D01*
X5114019Y4610599D01*
X5127185Y4633402D01*
X5134000Y4658835D01*
Y4685165D01*
X5127185Y4710598D01*
X5114019Y4733401D01*
X5095401Y4752020D01*
X5072598Y4765185D01*
X5047165Y4772000D01*
D02*
G37*
G36*
X4793165D02*
X4766835D01*
X4741401Y4765185D01*
X4718599Y4752020D01*
X4699980Y4733401D01*
X4686815Y4710598D01*
X4680000Y4685165D01*
Y4658835D01*
X4686815Y4633402D01*
X4699980Y4610599D01*
X4718599Y4591980D01*
X4741401Y4578815D01*
X4766835Y4572000D01*
X4793165D01*
X4818598Y4578815D01*
X4841401Y4591980D01*
X4860019Y4610599D01*
X4873185Y4633402D01*
X4880000Y4658835D01*
Y4685165D01*
X4873185Y4710598D01*
X4860019Y4733401D01*
X4841401Y4752020D01*
X4818598Y4765185D01*
X4793165Y4772000D01*
D02*
G37*
G36*
X4539165D02*
X4512835D01*
X4487401Y4765185D01*
X4464599Y4752020D01*
X4445980Y4733401D01*
X4432815Y4710598D01*
X4426000Y4685165D01*
Y4658835D01*
X4432815Y4633402D01*
X4445980Y4610599D01*
X4464599Y4591980D01*
X4487401Y4578815D01*
X4512835Y4572000D01*
X4539165D01*
X4564598Y4578815D01*
X4587401Y4591980D01*
X4606019Y4610599D01*
X4619185Y4633402D01*
X4626000Y4658835D01*
Y4685165D01*
X4619185Y4710598D01*
X4606019Y4733401D01*
X4587401Y4752020D01*
X4564598Y4765185D01*
X4539165Y4772000D01*
D02*
G37*
G36*
X4285165D02*
X4258835D01*
X4233401Y4765185D01*
X4210599Y4752020D01*
X4191980Y4733401D01*
X4178815Y4710598D01*
X4172000Y4685165D01*
Y4658835D01*
X4178815Y4633402D01*
X4191980Y4610599D01*
X4210599Y4591980D01*
X4233401Y4578815D01*
X4258835Y4572000D01*
X4285165D01*
X4310598Y4578815D01*
X4333401Y4591980D01*
X4352019Y4610599D01*
X4365185Y4633402D01*
X4372000Y4658835D01*
Y4685165D01*
X4365185Y4710598D01*
X4352019Y4733401D01*
X4333401Y4752020D01*
X4310598Y4765185D01*
X4285165Y4772000D01*
D02*
G37*
G36*
X4031165D02*
X4004835D01*
X3979401Y4765185D01*
X3956599Y4752020D01*
X3937980Y4733401D01*
X3924815Y4710598D01*
X3918000Y4685165D01*
Y4658835D01*
X3924815Y4633402D01*
X3937980Y4610599D01*
X3956599Y4591980D01*
X3979401Y4578815D01*
X4004835Y4572000D01*
X4031165D01*
X4056598Y4578815D01*
X4079401Y4591980D01*
X4098019Y4610599D01*
X4111185Y4633402D01*
X4118000Y4658835D01*
Y4685165D01*
X4111185Y4710598D01*
X4098019Y4733401D01*
X4079401Y4752020D01*
X4056598Y4765185D01*
X4031165Y4772000D01*
D02*
G37*
G36*
X3777165D02*
X3750835D01*
X3725401Y4765185D01*
X3702599Y4752020D01*
X3683980Y4733401D01*
X3670815Y4710598D01*
X3664000Y4685165D01*
Y4658835D01*
X3670815Y4633402D01*
X3683980Y4610599D01*
X3702599Y4591980D01*
X3725401Y4578815D01*
X3750835Y4572000D01*
X3777165D01*
X3802598Y4578815D01*
X3825401Y4591980D01*
X3844019Y4610599D01*
X3857185Y4633402D01*
X3864000Y4658835D01*
Y4685165D01*
X3857185Y4710598D01*
X3844019Y4733401D01*
X3825401Y4752020D01*
X3802598Y4765185D01*
X3777165Y4772000D01*
D02*
G37*
G36*
X3523165D02*
X3496835D01*
X3471401Y4765185D01*
X3448599Y4752020D01*
X3429980Y4733401D01*
X3416815Y4710598D01*
X3410000Y4685165D01*
Y4658835D01*
X3416815Y4633402D01*
X3429980Y4610599D01*
X3448599Y4591980D01*
X3471401Y4578815D01*
X3496835Y4572000D01*
X3523165D01*
X3548598Y4578815D01*
X3571401Y4591980D01*
X3590019Y4610599D01*
X3603185Y4633402D01*
X3610000Y4658835D01*
Y4685165D01*
X3603185Y4710598D01*
X3590019Y4733401D01*
X3571401Y4752020D01*
X3548598Y4765185D01*
X3523165Y4772000D01*
D02*
G37*
G36*
X3269165D02*
X3242835D01*
X3217401Y4765185D01*
X3194599Y4752020D01*
X3175980Y4733401D01*
X3162815Y4710598D01*
X3156000Y4685165D01*
Y4658835D01*
X3162815Y4633402D01*
X3175980Y4610599D01*
X3194599Y4591980D01*
X3217401Y4578815D01*
X3242835Y4572000D01*
X3269165D01*
X3294598Y4578815D01*
X3317401Y4591980D01*
X3336019Y4610599D01*
X3349185Y4633402D01*
X3356000Y4658835D01*
Y4685165D01*
X3349185Y4710598D01*
X3336019Y4733401D01*
X3317401Y4752020D01*
X3294598Y4765185D01*
X3269165Y4772000D01*
D02*
G37*
G36*
X3015165D02*
X2988835D01*
X2963401Y4765185D01*
X2940599Y4752020D01*
X2921980Y4733401D01*
X2908815Y4710598D01*
X2902000Y4685165D01*
Y4658835D01*
X2908815Y4633402D01*
X2921980Y4610599D01*
X2940599Y4591980D01*
X2963401Y4578815D01*
X2988835Y4572000D01*
X3015165D01*
X3040598Y4578815D01*
X3063401Y4591980D01*
X3082019Y4610599D01*
X3095185Y4633402D01*
X3102000Y4658835D01*
Y4685165D01*
X3095185Y4710598D01*
X3082019Y4733401D01*
X3063401Y4752020D01*
X3040598Y4765185D01*
X3015165Y4772000D01*
D02*
G37*
G36*
X2761165D02*
X2734835D01*
X2709401Y4765185D01*
X2686599Y4752020D01*
X2667980Y4733401D01*
X2654815Y4710598D01*
X2648000Y4685165D01*
Y4658835D01*
X2654815Y4633402D01*
X2667980Y4610599D01*
X2686599Y4591980D01*
X2709401Y4578815D01*
X2734835Y4572000D01*
X2761165D01*
X2786598Y4578815D01*
X2809401Y4591980D01*
X2828019Y4610599D01*
X2841185Y4633402D01*
X2848000Y4658835D01*
Y4685165D01*
X2841185Y4710598D01*
X2828019Y4733401D01*
X2809401Y4752020D01*
X2786598Y4765185D01*
X2761165Y4772000D01*
D02*
G37*
G36*
X2507165D02*
X2480835D01*
X2455401Y4765185D01*
X2432599Y4752020D01*
X2413980Y4733401D01*
X2400815Y4710598D01*
X2394000Y4685165D01*
Y4658835D01*
X2400815Y4633402D01*
X2413980Y4610599D01*
X2432599Y4591980D01*
X2455401Y4578815D01*
X2480835Y4572000D01*
X2507165D01*
X2532598Y4578815D01*
X2555401Y4591980D01*
X2574019Y4610599D01*
X2587185Y4633402D01*
X2594000Y4658835D01*
Y4685165D01*
X2587185Y4710598D01*
X2574019Y4733401D01*
X2555401Y4752020D01*
X2532598Y4765185D01*
X2507165Y4772000D01*
D02*
G37*
G36*
X2253165D02*
X2226835D01*
X2201401Y4765185D01*
X2178599Y4752020D01*
X2159980Y4733401D01*
X2146815Y4710598D01*
X2140000Y4685165D01*
Y4658835D01*
X2146815Y4633402D01*
X2159980Y4610599D01*
X2178599Y4591980D01*
X2201401Y4578815D01*
X2226835Y4572000D01*
X2253165D01*
X2278598Y4578815D01*
X2301401Y4591980D01*
X2320019Y4610599D01*
X2333185Y4633402D01*
X2340000Y4658835D01*
Y4685165D01*
X2333185Y4710598D01*
X2320019Y4733401D01*
X2301401Y4752020D01*
X2278598Y4765185D01*
X2253165Y4772000D01*
D02*
G37*
G36*
X1999165D02*
X1972835D01*
X1947401Y4765185D01*
X1924599Y4752020D01*
X1905980Y4733401D01*
X1892815Y4710598D01*
X1886000Y4685165D01*
Y4658835D01*
X1892815Y4633402D01*
X1905980Y4610599D01*
X1924599Y4591980D01*
X1947401Y4578815D01*
X1972835Y4572000D01*
X1999165D01*
X2024598Y4578815D01*
X2047401Y4591980D01*
X2066019Y4610599D01*
X2079185Y4633402D01*
X2086000Y4658835D01*
Y4685165D01*
X2079185Y4710598D01*
X2066019Y4733401D01*
X2047401Y4752020D01*
X2024598Y4765185D01*
X1999165Y4772000D01*
D02*
G37*
G36*
X1491165D02*
X1464835D01*
X1439401Y4765185D01*
X1416599Y4752020D01*
X1397980Y4733401D01*
X1384815Y4710598D01*
X1378000Y4685165D01*
Y4658835D01*
X1384815Y4633402D01*
X1397980Y4610599D01*
X1416599Y4591980D01*
X1439401Y4578815D01*
X1464835Y4572000D01*
X1491165D01*
X1516598Y4578815D01*
X1539401Y4591980D01*
X1558019Y4610599D01*
X1571185Y4633402D01*
X1578000Y4658835D01*
Y4685165D01*
X1571185Y4710598D01*
X1558019Y4733401D01*
X1539401Y4752020D01*
X1516598Y4765185D01*
X1491165Y4772000D01*
D02*
G37*
G36*
X6617115Y4756000D02*
X6582885D01*
X6549822Y4747141D01*
X6520178Y4730026D01*
X6495974Y4705822D01*
X6478859Y4676178D01*
X6470000Y4643115D01*
Y4608885D01*
X6478859Y4575822D01*
X6495974Y4546178D01*
X6520178Y4521974D01*
X6549822Y4504859D01*
X6582885Y4496000D01*
X6617115D01*
X6650178Y4504859D01*
X6679822Y4521974D01*
X6704026Y4546178D01*
X6721141Y4575822D01*
X6730000Y4608885D01*
Y4643115D01*
X6721141Y4676178D01*
X6704026Y4705822D01*
X6679822Y4730026D01*
X6650178Y4747141D01*
X6617115Y4756000D01*
D02*
G37*
G36*
X5047165Y4210000D02*
X5020835D01*
X4995401Y4203185D01*
X4972599Y4190020D01*
X4953980Y4171401D01*
X4940815Y4148599D01*
X4934000Y4123165D01*
Y4096835D01*
X4940815Y4071402D01*
X4953980Y4048599D01*
X4972599Y4029981D01*
X4995401Y4016815D01*
X5020835Y4010000D01*
X5047165D01*
X5072598Y4016815D01*
X5095401Y4029981D01*
X5114019Y4048599D01*
X5127185Y4071402D01*
X5134000Y4096835D01*
Y4123165D01*
X5127185Y4148599D01*
X5114019Y4171401D01*
X5095401Y4190020D01*
X5072598Y4203185D01*
X5047165Y4210000D01*
D02*
G37*
G36*
X4793165D02*
X4766835D01*
X4741401Y4203185D01*
X4718599Y4190020D01*
X4699980Y4171401D01*
X4686815Y4148599D01*
X4680000Y4123165D01*
Y4096835D01*
X4686815Y4071402D01*
X4699980Y4048599D01*
X4718599Y4029981D01*
X4741401Y4016815D01*
X4766835Y4010000D01*
X4793165D01*
X4818598Y4016815D01*
X4841401Y4029981D01*
X4860019Y4048599D01*
X4873185Y4071402D01*
X4880000Y4096835D01*
Y4123165D01*
X4873185Y4148599D01*
X4860019Y4171401D01*
X4841401Y4190020D01*
X4818598Y4203185D01*
X4793165Y4210000D01*
D02*
G37*
G36*
X4539165D02*
X4512835D01*
X4487401Y4203185D01*
X4464599Y4190020D01*
X4445980Y4171401D01*
X4432815Y4148599D01*
X4426000Y4123165D01*
Y4096835D01*
X4432815Y4071402D01*
X4445980Y4048599D01*
X4464599Y4029981D01*
X4487401Y4016815D01*
X4512835Y4010000D01*
X4539165D01*
X4564598Y4016815D01*
X4587401Y4029981D01*
X4606019Y4048599D01*
X4619185Y4071402D01*
X4626000Y4096835D01*
Y4123165D01*
X4619185Y4148599D01*
X4606019Y4171401D01*
X4587401Y4190020D01*
X4564598Y4203185D01*
X4539165Y4210000D01*
D02*
G37*
G36*
X4285165D02*
X4258835D01*
X4233401Y4203185D01*
X4210599Y4190020D01*
X4191980Y4171401D01*
X4178815Y4148599D01*
X4172000Y4123165D01*
Y4096835D01*
X4178815Y4071402D01*
X4191980Y4048599D01*
X4210599Y4029981D01*
X4233401Y4016815D01*
X4258835Y4010000D01*
X4285165D01*
X4310598Y4016815D01*
X4333401Y4029981D01*
X4352019Y4048599D01*
X4365185Y4071402D01*
X4372000Y4096835D01*
Y4123165D01*
X4365185Y4148599D01*
X4352019Y4171401D01*
X4333401Y4190020D01*
X4310598Y4203185D01*
X4285165Y4210000D01*
D02*
G37*
G36*
X4031165D02*
X4004835D01*
X3979401Y4203185D01*
X3956599Y4190020D01*
X3937980Y4171401D01*
X3924815Y4148599D01*
X3918000Y4123165D01*
Y4096835D01*
X3924815Y4071402D01*
X3937980Y4048599D01*
X3956599Y4029981D01*
X3979401Y4016815D01*
X4004835Y4010000D01*
X4031165D01*
X4056598Y4016815D01*
X4079401Y4029981D01*
X4098019Y4048599D01*
X4111185Y4071402D01*
X4118000Y4096835D01*
Y4123165D01*
X4111185Y4148599D01*
X4098019Y4171401D01*
X4079401Y4190020D01*
X4056598Y4203185D01*
X4031165Y4210000D01*
D02*
G37*
G36*
X3777165D02*
X3750835D01*
X3725401Y4203185D01*
X3702599Y4190020D01*
X3683980Y4171401D01*
X3670815Y4148599D01*
X3664000Y4123165D01*
Y4096835D01*
X3670815Y4071402D01*
X3683980Y4048599D01*
X3702599Y4029981D01*
X3725401Y4016815D01*
X3750835Y4010000D01*
X3777165D01*
X3802598Y4016815D01*
X3825401Y4029981D01*
X3844019Y4048599D01*
X3857185Y4071402D01*
X3864000Y4096835D01*
Y4123165D01*
X3857185Y4148599D01*
X3844019Y4171401D01*
X3825401Y4190020D01*
X3802598Y4203185D01*
X3777165Y4210000D01*
D02*
G37*
G36*
X3523165D02*
X3496835D01*
X3471401Y4203185D01*
X3448599Y4190020D01*
X3429980Y4171401D01*
X3416815Y4148599D01*
X3410000Y4123165D01*
Y4096835D01*
X3416815Y4071402D01*
X3429980Y4048599D01*
X3448599Y4029981D01*
X3471401Y4016815D01*
X3496835Y4010000D01*
X3523165D01*
X3548598Y4016815D01*
X3571401Y4029981D01*
X3590019Y4048599D01*
X3603185Y4071402D01*
X3610000Y4096835D01*
Y4123165D01*
X3603185Y4148599D01*
X3590019Y4171401D01*
X3571401Y4190020D01*
X3548598Y4203185D01*
X3523165Y4210000D01*
D02*
G37*
G36*
X3269165D02*
X3242835D01*
X3217401Y4203185D01*
X3194599Y4190020D01*
X3175980Y4171401D01*
X3162815Y4148599D01*
X3156000Y4123165D01*
Y4096835D01*
X3162815Y4071402D01*
X3175980Y4048599D01*
X3194599Y4029981D01*
X3217401Y4016815D01*
X3242835Y4010000D01*
X3269165D01*
X3294598Y4016815D01*
X3317401Y4029981D01*
X3336019Y4048599D01*
X3349185Y4071402D01*
X3356000Y4096835D01*
Y4123165D01*
X3349185Y4148599D01*
X3336019Y4171401D01*
X3317401Y4190020D01*
X3294598Y4203185D01*
X3269165Y4210000D01*
D02*
G37*
G36*
X3015165D02*
X2988835D01*
X2963401Y4203185D01*
X2940599Y4190020D01*
X2921980Y4171401D01*
X2908815Y4148599D01*
X2902000Y4123165D01*
Y4096835D01*
X2908815Y4071402D01*
X2921980Y4048599D01*
X2940599Y4029981D01*
X2963401Y4016815D01*
X2988835Y4010000D01*
X3015165D01*
X3040598Y4016815D01*
X3063401Y4029981D01*
X3082019Y4048599D01*
X3095185Y4071402D01*
X3102000Y4096835D01*
Y4123165D01*
X3095185Y4148599D01*
X3082019Y4171401D01*
X3063401Y4190020D01*
X3040598Y4203185D01*
X3015165Y4210000D01*
D02*
G37*
G36*
X2761165D02*
X2734835D01*
X2709401Y4203185D01*
X2686599Y4190020D01*
X2667980Y4171401D01*
X2654815Y4148599D01*
X2648000Y4123165D01*
Y4096835D01*
X2654815Y4071402D01*
X2667980Y4048599D01*
X2686599Y4029981D01*
X2709401Y4016815D01*
X2734835Y4010000D01*
X2761165D01*
X2786598Y4016815D01*
X2809401Y4029981D01*
X2828019Y4048599D01*
X2841185Y4071402D01*
X2848000Y4096835D01*
Y4123165D01*
X2841185Y4148599D01*
X2828019Y4171401D01*
X2809401Y4190020D01*
X2786598Y4203185D01*
X2761165Y4210000D01*
D02*
G37*
G36*
X2507165D02*
X2480835D01*
X2455401Y4203185D01*
X2432599Y4190020D01*
X2413980Y4171401D01*
X2400815Y4148599D01*
X2394000Y4123165D01*
Y4096835D01*
X2400815Y4071402D01*
X2413980Y4048599D01*
X2432599Y4029981D01*
X2455401Y4016815D01*
X2480835Y4010000D01*
X2507165D01*
X2532598Y4016815D01*
X2555401Y4029981D01*
X2574019Y4048599D01*
X2587185Y4071402D01*
X2594000Y4096835D01*
Y4123165D01*
X2587185Y4148599D01*
X2574019Y4171401D01*
X2555401Y4190020D01*
X2532598Y4203185D01*
X2507165Y4210000D01*
D02*
G37*
G36*
X2253165D02*
X2226835D01*
X2201401Y4203185D01*
X2178599Y4190020D01*
X2159980Y4171401D01*
X2146815Y4148599D01*
X2140000Y4123165D01*
Y4096835D01*
X2146815Y4071402D01*
X2159980Y4048599D01*
X2178599Y4029981D01*
X2201401Y4016815D01*
X2226835Y4010000D01*
X2253165D01*
X2278598Y4016815D01*
X2301401Y4029981D01*
X2320019Y4048599D01*
X2333185Y4071402D01*
X2340000Y4096835D01*
Y4123165D01*
X2333185Y4148599D01*
X2320019Y4171401D01*
X2301401Y4190020D01*
X2278598Y4203185D01*
X2253165Y4210000D01*
D02*
G37*
G36*
X1999165D02*
X1972835D01*
X1947401Y4203185D01*
X1924599Y4190020D01*
X1905980Y4171401D01*
X1892815Y4148599D01*
X1886000Y4123165D01*
Y4096835D01*
X1892815Y4071402D01*
X1905980Y4048599D01*
X1924599Y4029981D01*
X1947401Y4016815D01*
X1972835Y4010000D01*
X1999165D01*
X2024598Y4016815D01*
X2047401Y4029981D01*
X2066019Y4048599D01*
X2079185Y4071402D01*
X2086000Y4096835D01*
Y4123165D01*
X2079185Y4148599D01*
X2066019Y4171401D01*
X2047401Y4190020D01*
X2024598Y4203185D01*
X1999165Y4210000D01*
D02*
G37*
G36*
X1491165D02*
X1464835D01*
X1439401Y4203185D01*
X1416599Y4190020D01*
X1397980Y4171401D01*
X1384815Y4148599D01*
X1378000Y4123165D01*
Y4096835D01*
X1384815Y4071402D01*
X1397980Y4048599D01*
X1416599Y4029981D01*
X1439401Y4016815D01*
X1464835Y4010000D01*
X1491165D01*
X1516598Y4016815D01*
X1539401Y4029981D01*
X1558019Y4048599D01*
X1571185Y4071402D01*
X1578000Y4096835D01*
Y4123165D01*
X1571185Y4148599D01*
X1558019Y4171401D01*
X1539401Y4190020D01*
X1516598Y4203185D01*
X1491165Y4210000D01*
D02*
G37*
G36*
X6617115Y4248000D02*
X6582885D01*
X6549822Y4239141D01*
X6520178Y4222026D01*
X6495974Y4197822D01*
X6478859Y4168178D01*
X6470000Y4135115D01*
Y4100885D01*
X6478859Y4067822D01*
X6495974Y4038178D01*
X6520178Y4013974D01*
X6549822Y3996859D01*
X6582885Y3988000D01*
X6617115D01*
X6650178Y3996859D01*
X6679822Y4013974D01*
X6704026Y4038178D01*
X6721141Y4067822D01*
X6730000Y4100885D01*
Y4135115D01*
X6721141Y4168178D01*
X6704026Y4197822D01*
X6679822Y4222026D01*
X6650178Y4239141D01*
X6617115Y4248000D01*
D02*
G37*
G36*
Y3740000D02*
X6582885D01*
X6549822Y3731141D01*
X6520178Y3714026D01*
X6495974Y3689822D01*
X6478859Y3660178D01*
X6470000Y3627115D01*
Y3592885D01*
X6478859Y3559822D01*
X6495974Y3530178D01*
X6520178Y3505974D01*
X6549822Y3488859D01*
X6582885Y3480000D01*
X6617115D01*
X6650178Y3488859D01*
X6679822Y3505974D01*
X6704026Y3530178D01*
X6721141Y3559822D01*
X6730000Y3592885D01*
Y3627115D01*
X6721141Y3660178D01*
X6704026Y3689822D01*
X6679822Y3714026D01*
X6650178Y3731141D01*
X6617115Y3740000D01*
D02*
G37*
G36*
X5217500Y3290500D02*
X4582500D01*
Y2909500D01*
X4800000D01*
Y2756078D01*
X4150000D01*
Y2880000D01*
X3740000D01*
Y2520000D01*
X3888923D01*
Y2046077D01*
X2636080D01*
Y2060000D01*
X2665002D01*
Y2340000D01*
X2495002D01*
Y2060000D01*
X2523925D01*
Y2019290D01*
X2528194Y1997830D01*
X2540350Y1979637D01*
X2569639Y1950347D01*
X2587832Y1938191D01*
X2609292Y1933923D01*
X3915710D01*
X3937170Y1938191D01*
X3955363Y1950347D01*
X3984653Y1979637D01*
X3996809Y1997830D01*
X4001077Y2019290D01*
Y2520000D01*
X4150000D01*
Y2643923D01*
X4800000D01*
Y2600000D01*
X5000000D01*
Y2643923D01*
X5317482D01*
X5336648Y2624758D01*
Y2493124D01*
X5312725D01*
Y2303124D01*
X5472725D01*
Y2493124D01*
X5448802D01*
Y2622427D01*
X5458878Y2630158D01*
X5459468Y2630000D01*
X5480532D01*
X5500879Y2635452D01*
X5519121Y2645984D01*
X5534016Y2660879D01*
X5544548Y2679121D01*
X5550000Y2699468D01*
Y2720532D01*
X5544548Y2740879D01*
X5534016Y2759121D01*
X5519121Y2774016D01*
X5500879Y2784548D01*
X5480532Y2790000D01*
X5459468D01*
X5439121Y2784548D01*
X5420879Y2774016D01*
X5405984Y2759121D01*
X5404227Y2756078D01*
X5000000D01*
Y2909500D01*
X5217500D01*
Y3290500D01*
D02*
G37*
G36*
X6617115Y2724000D02*
X6582885D01*
X6549822Y2715141D01*
X6520178Y2698026D01*
X6495974Y2673822D01*
X6478859Y2644178D01*
X6470000Y2611115D01*
Y2576885D01*
X6478859Y2543822D01*
X6495974Y2514178D01*
X6520178Y2489974D01*
X6549822Y2472859D01*
X6582885Y2464000D01*
X6617115D01*
X6650178Y2472859D01*
X6679822Y2489974D01*
X6704026Y2514178D01*
X6721141Y2543822D01*
X6730000Y2576885D01*
Y2611115D01*
X6721141Y2644178D01*
X6704026Y2673822D01*
X6679822Y2698026D01*
X6650178Y2715141D01*
X6617115Y2724000D01*
D02*
G37*
G36*
X4870000Y2520000D02*
X4675000D01*
Y2270000D01*
X4870000D01*
Y2342046D01*
X5122725D01*
Y2303124D01*
X5282725D01*
Y2493124D01*
X5122725D01*
Y2454201D01*
X4870000D01*
Y2520000D01*
D02*
G37*
G36*
X3570000Y3502500D02*
X3310000D01*
Y3297500D01*
X3369396D01*
Y2878000D01*
X3100000D01*
Y2660604D01*
X2286861D01*
X2268587Y2658198D01*
X2251559Y2651145D01*
X2236936Y2639925D01*
X2190073Y2593062D01*
X2178853Y2578439D01*
X2171800Y2561411D01*
X2169394Y2543137D01*
Y2340000D01*
X1985001D01*
Y2270604D01*
X1230000D01*
Y2645000D01*
X970000D01*
Y2557686D01*
X969396Y2553100D01*
X970000Y2548514D01*
Y2184849D01*
X545075Y1759925D01*
X533855Y1745302D01*
X527503Y1729967D01*
X511812Y1728421D01*
X468457Y1715270D01*
X428501Y1693913D01*
X393479Y1665171D01*
X364737Y1630149D01*
X343380Y1590192D01*
X330228Y1546837D01*
X325788Y1501749D01*
X330228Y1456662D01*
X343380Y1413306D01*
X364737Y1373350D01*
X393479Y1338328D01*
X428501Y1309586D01*
X468457Y1288229D01*
X511812Y1275077D01*
X556900Y1270637D01*
X656900D01*
X701988Y1275077D01*
X745343Y1288229D01*
X785300Y1309586D01*
X820322Y1338328D01*
X849064Y1373350D01*
X870421Y1413306D01*
X883572Y1456662D01*
X888013Y1501749D01*
X883572Y1546837D01*
X870421Y1590192D01*
X849064Y1630149D01*
X820322Y1665171D01*
X785300Y1693913D01*
X745343Y1715270D01*
X722464Y1722210D01*
X719378Y1734529D01*
X1069849Y2085000D01*
X1230000D01*
Y2129396D01*
X1985001D01*
Y2060000D01*
X2324998D01*
Y2340000D01*
X2310602D01*
Y2513892D01*
X2316106Y2519396D01*
X3100000D01*
Y2518000D01*
X3510000D01*
Y2803412D01*
X3510604Y2808000D01*
Y3297500D01*
X3570000D01*
Y3502500D01*
D02*
G37*
G36*
X6617115Y2216000D02*
X6582885D01*
X6549822Y2207141D01*
X6520178Y2190026D01*
X6495974Y2165822D01*
X6478859Y2136178D01*
X6470000Y2103115D01*
Y2068885D01*
X6478859Y2035822D01*
X6495974Y2006178D01*
X6520178Y1981974D01*
X6549822Y1964859D01*
X6582885Y1956000D01*
X6617115D01*
X6650178Y1964859D01*
X6679822Y1981974D01*
X6704026Y2006178D01*
X6721141Y2035822D01*
X6730000Y2068885D01*
Y2103115D01*
X6721141Y2136178D01*
X6704026Y2165822D01*
X6679822Y2190026D01*
X6650178Y2207141D01*
X6617115Y2216000D01*
D02*
G37*
G36*
X5047165Y1670000D02*
X5020835D01*
X4995401Y1663185D01*
X4972599Y1650020D01*
X4953980Y1631401D01*
X4940815Y1608599D01*
X4934000Y1583165D01*
Y1556835D01*
X4940815Y1531402D01*
X4953980Y1508599D01*
X4972599Y1489981D01*
X4995401Y1476815D01*
X5020835Y1470000D01*
X5047165D01*
X5072598Y1476815D01*
X5095401Y1489981D01*
X5114019Y1508599D01*
X5127185Y1531402D01*
X5134000Y1556835D01*
Y1583165D01*
X5127185Y1608599D01*
X5114019Y1631401D01*
X5095401Y1650020D01*
X5072598Y1663185D01*
X5047165Y1670000D01*
D02*
G37*
G36*
X4793165D02*
X4766835D01*
X4741401Y1663185D01*
X4718599Y1650020D01*
X4699980Y1631401D01*
X4686815Y1608599D01*
X4680000Y1583165D01*
Y1556835D01*
X4686815Y1531402D01*
X4699980Y1508599D01*
X4718599Y1489981D01*
X4741401Y1476815D01*
X4766835Y1470000D01*
X4793165D01*
X4818598Y1476815D01*
X4841401Y1489981D01*
X4860019Y1508599D01*
X4873185Y1531402D01*
X4880000Y1556835D01*
Y1583165D01*
X4873185Y1608599D01*
X4860019Y1631401D01*
X4841401Y1650020D01*
X4818598Y1663185D01*
X4793165Y1670000D01*
D02*
G37*
G36*
X4539165D02*
X4512835D01*
X4487401Y1663185D01*
X4464599Y1650020D01*
X4445980Y1631401D01*
X4432815Y1608599D01*
X4426000Y1583165D01*
Y1556835D01*
X4432815Y1531402D01*
X4445980Y1508599D01*
X4464599Y1489981D01*
X4487401Y1476815D01*
X4512835Y1470000D01*
X4539165D01*
X4564598Y1476815D01*
X4587401Y1489981D01*
X4606019Y1508599D01*
X4619185Y1531402D01*
X4626000Y1556835D01*
Y1583165D01*
X4619185Y1608599D01*
X4606019Y1631401D01*
X4587401Y1650020D01*
X4564598Y1663185D01*
X4539165Y1670000D01*
D02*
G37*
G36*
X4285165D02*
X4258835D01*
X4233401Y1663185D01*
X4210599Y1650020D01*
X4191980Y1631401D01*
X4178815Y1608599D01*
X4172000Y1583165D01*
Y1556835D01*
X4178815Y1531402D01*
X4191980Y1508599D01*
X4210599Y1489981D01*
X4233401Y1476815D01*
X4258835Y1470000D01*
X4285165D01*
X4310598Y1476815D01*
X4333401Y1489981D01*
X4352019Y1508599D01*
X4365185Y1531402D01*
X4372000Y1556835D01*
Y1583165D01*
X4365185Y1608599D01*
X4352019Y1631401D01*
X4333401Y1650020D01*
X4310598Y1663185D01*
X4285165Y1670000D01*
D02*
G37*
G36*
X4031165D02*
X4004835D01*
X3979401Y1663185D01*
X3956599Y1650020D01*
X3937980Y1631401D01*
X3924815Y1608599D01*
X3918000Y1583165D01*
Y1556835D01*
X3924815Y1531402D01*
X3937980Y1508599D01*
X3956599Y1489981D01*
X3979401Y1476815D01*
X4004835Y1470000D01*
X4031165D01*
X4056598Y1476815D01*
X4079401Y1489981D01*
X4098019Y1508599D01*
X4111185Y1531402D01*
X4118000Y1556835D01*
Y1583165D01*
X4111185Y1608599D01*
X4098019Y1631401D01*
X4079401Y1650020D01*
X4056598Y1663185D01*
X4031165Y1670000D01*
D02*
G37*
G36*
X3777165D02*
X3750835D01*
X3725401Y1663185D01*
X3702599Y1650020D01*
X3683980Y1631401D01*
X3670815Y1608599D01*
X3664000Y1583165D01*
Y1556835D01*
X3670815Y1531402D01*
X3683980Y1508599D01*
X3702599Y1489981D01*
X3725401Y1476815D01*
X3750835Y1470000D01*
X3777165D01*
X3802598Y1476815D01*
X3825401Y1489981D01*
X3844019Y1508599D01*
X3857185Y1531402D01*
X3864000Y1556835D01*
Y1583165D01*
X3857185Y1608599D01*
X3844019Y1631401D01*
X3825401Y1650020D01*
X3802598Y1663185D01*
X3777165Y1670000D01*
D02*
G37*
G36*
X3523165D02*
X3496835D01*
X3471401Y1663185D01*
X3448599Y1650020D01*
X3429980Y1631401D01*
X3416815Y1608599D01*
X3410000Y1583165D01*
Y1556835D01*
X3416815Y1531402D01*
X3429980Y1508599D01*
X3448599Y1489981D01*
X3471401Y1476815D01*
X3496835Y1470000D01*
X3523165D01*
X3548598Y1476815D01*
X3571401Y1489981D01*
X3590019Y1508599D01*
X3603185Y1531402D01*
X3610000Y1556835D01*
Y1583165D01*
X3603185Y1608599D01*
X3590019Y1631401D01*
X3571401Y1650020D01*
X3548598Y1663185D01*
X3523165Y1670000D01*
D02*
G37*
G36*
X3269165D02*
X3242835D01*
X3217401Y1663185D01*
X3194599Y1650020D01*
X3175980Y1631401D01*
X3162815Y1608599D01*
X3156000Y1583165D01*
Y1556835D01*
X3162815Y1531402D01*
X3175980Y1508599D01*
X3194599Y1489981D01*
X3217401Y1476815D01*
X3242835Y1470000D01*
X3269165D01*
X3294598Y1476815D01*
X3317401Y1489981D01*
X3336019Y1508599D01*
X3349185Y1531402D01*
X3356000Y1556835D01*
Y1583165D01*
X3349185Y1608599D01*
X3336019Y1631401D01*
X3317401Y1650020D01*
X3294598Y1663185D01*
X3269165Y1670000D01*
D02*
G37*
G36*
X3015165D02*
X2988835D01*
X2963401Y1663185D01*
X2940599Y1650020D01*
X2921980Y1631401D01*
X2908815Y1608599D01*
X2902000Y1583165D01*
Y1556835D01*
X2908815Y1531402D01*
X2921980Y1508599D01*
X2940599Y1489981D01*
X2963401Y1476815D01*
X2988835Y1470000D01*
X3015165D01*
X3040598Y1476815D01*
X3063401Y1489981D01*
X3082019Y1508599D01*
X3095185Y1531402D01*
X3102000Y1556835D01*
Y1583165D01*
X3095185Y1608599D01*
X3082019Y1631401D01*
X3063401Y1650020D01*
X3040598Y1663185D01*
X3015165Y1670000D01*
D02*
G37*
G36*
X2761165D02*
X2734835D01*
X2709401Y1663185D01*
X2686599Y1650020D01*
X2667980Y1631401D01*
X2654815Y1608599D01*
X2648000Y1583165D01*
Y1556835D01*
X2654815Y1531402D01*
X2667980Y1508599D01*
X2686599Y1489981D01*
X2709401Y1476815D01*
X2734835Y1470000D01*
X2761165D01*
X2786598Y1476815D01*
X2809401Y1489981D01*
X2828019Y1508599D01*
X2841185Y1531402D01*
X2848000Y1556835D01*
Y1583165D01*
X2841185Y1608599D01*
X2828019Y1631401D01*
X2809401Y1650020D01*
X2786598Y1663185D01*
X2761165Y1670000D01*
D02*
G37*
G36*
X2507165D02*
X2480835D01*
X2455401Y1663185D01*
X2432599Y1650020D01*
X2413980Y1631401D01*
X2400815Y1608599D01*
X2394000Y1583165D01*
Y1556835D01*
X2400815Y1531402D01*
X2413980Y1508599D01*
X2432599Y1489981D01*
X2455401Y1476815D01*
X2480835Y1470000D01*
X2507165D01*
X2532598Y1476815D01*
X2555401Y1489981D01*
X2574019Y1508599D01*
X2587185Y1531402D01*
X2594000Y1556835D01*
Y1583165D01*
X2587185Y1608599D01*
X2574019Y1631401D01*
X2555401Y1650020D01*
X2532598Y1663185D01*
X2507165Y1670000D01*
D02*
G37*
G36*
X2253165D02*
X2226835D01*
X2201401Y1663185D01*
X2178599Y1650020D01*
X2159980Y1631401D01*
X2146815Y1608599D01*
X2140000Y1583165D01*
Y1556835D01*
X2146815Y1531402D01*
X2159980Y1508599D01*
X2178599Y1489981D01*
X2201401Y1476815D01*
X2226835Y1470000D01*
X2253165D01*
X2278598Y1476815D01*
X2301401Y1489981D01*
X2320019Y1508599D01*
X2333185Y1531402D01*
X2340000Y1556835D01*
Y1583165D01*
X2333185Y1608599D01*
X2320019Y1631401D01*
X2301401Y1650020D01*
X2278598Y1663185D01*
X2253165Y1670000D01*
D02*
G37*
G36*
X1999165D02*
X1972835D01*
X1947401Y1663185D01*
X1924599Y1650020D01*
X1905980Y1631401D01*
X1892815Y1608599D01*
X1886000Y1583165D01*
Y1556835D01*
X1892815Y1531402D01*
X1905980Y1508599D01*
X1924599Y1489981D01*
X1947401Y1476815D01*
X1972835Y1470000D01*
X1999165D01*
X2024598Y1476815D01*
X2047401Y1489981D01*
X2066019Y1508599D01*
X2079185Y1531402D01*
X2086000Y1556835D01*
Y1583165D01*
X2079185Y1608599D01*
X2066019Y1631401D01*
X2047401Y1650020D01*
X2024598Y1663185D01*
X1999165Y1670000D01*
D02*
G37*
G36*
X1745165D02*
X1718835D01*
X1693401Y1663185D01*
X1670599Y1650020D01*
X1651980Y1631401D01*
X1638815Y1608599D01*
X1632000Y1583165D01*
Y1556835D01*
X1638815Y1531402D01*
X1651980Y1508599D01*
X1670599Y1489981D01*
X1693401Y1476815D01*
X1718835Y1470000D01*
X1745165D01*
X1770598Y1476815D01*
X1793401Y1489981D01*
X1812019Y1508599D01*
X1825185Y1531402D01*
X1832000Y1556835D01*
Y1583165D01*
X1825185Y1608599D01*
X1812019Y1631401D01*
X1793401Y1650020D01*
X1770598Y1663185D01*
X1745165Y1670000D01*
D02*
G37*
G36*
X1491165D02*
X1464835D01*
X1439401Y1663185D01*
X1416599Y1650020D01*
X1397980Y1631401D01*
X1384815Y1608599D01*
X1378000Y1583165D01*
Y1556835D01*
X1384815Y1531402D01*
X1397980Y1508599D01*
X1416599Y1489981D01*
X1439401Y1476815D01*
X1464835Y1470000D01*
X1491165D01*
X1516598Y1476815D01*
X1539401Y1489981D01*
X1558019Y1508599D01*
X1571185Y1531402D01*
X1578000Y1556835D01*
Y1583165D01*
X1571185Y1608599D01*
X1558019Y1631401D01*
X1539401Y1650020D01*
X1516598Y1663185D01*
X1491165Y1670000D01*
D02*
G37*
G36*
X6617115Y1708000D02*
X6582885D01*
X6549822Y1699141D01*
X6520178Y1682026D01*
X6495974Y1657822D01*
X6478859Y1628179D01*
X6470000Y1595115D01*
Y1560886D01*
X6478859Y1527822D01*
X6495974Y1498179D01*
X6520178Y1473975D01*
X6549822Y1456860D01*
X6582885Y1448000D01*
X6617115D01*
X6650178Y1456860D01*
X6679822Y1473975D01*
X6704026Y1498179D01*
X6721141Y1527822D01*
X6730000Y1560886D01*
Y1595115D01*
X6721141Y1628179D01*
X6704026Y1657822D01*
X6679822Y1682026D01*
X6650178Y1699141D01*
X6617115Y1708000D01*
D02*
G37*
G36*
X1112153Y1439649D02*
X1066847D01*
X1022412Y1430810D01*
X980555Y1413472D01*
X942884Y1388302D01*
X910848Y1356266D01*
X885677Y1318595D01*
X868339Y1276738D01*
X859500Y1232302D01*
Y1186996D01*
X868339Y1142561D01*
X885677Y1100704D01*
X910848Y1063033D01*
X942884Y1030997D01*
X980555Y1005826D01*
X1022412Y988488D01*
X1066847Y979650D01*
X1112153D01*
X1156589Y988488D01*
X1198446Y1005826D01*
X1236116Y1030997D01*
X1268153Y1063033D01*
X1293323Y1100704D01*
X1310661Y1142561D01*
X1319500Y1186996D01*
Y1232302D01*
X1310661Y1276738D01*
X1293323Y1318595D01*
X1268153Y1356266D01*
X1236116Y1388302D01*
X1198446Y1413472D01*
X1156589Y1430810D01*
X1112153Y1439649D01*
D02*
G37*
G36*
X6617115Y1200000D02*
X6582885D01*
X6549822Y1191141D01*
X6520178Y1174026D01*
X6495974Y1149822D01*
X6478859Y1120178D01*
X6470000Y1087115D01*
Y1052885D01*
X6478859Y1019822D01*
X6495974Y990178D01*
X6520178Y965974D01*
X6549822Y948859D01*
X6582885Y940000D01*
X6617115D01*
X6650178Y948859D01*
X6679822Y965974D01*
X6704026Y990178D01*
X6721141Y1019822D01*
X6730000Y1052885D01*
Y1087115D01*
X6721141Y1120178D01*
X6704026Y1149822D01*
X6679822Y1174026D01*
X6650178Y1191141D01*
X6617115Y1200000D01*
D02*
G37*
G36*
X5047165Y1108000D02*
X5020835D01*
X4995401Y1101185D01*
X4972599Y1088020D01*
X4953980Y1069401D01*
X4940815Y1046599D01*
X4934000Y1021166D01*
Y994835D01*
X4940815Y969402D01*
X4953980Y946599D01*
X4972599Y927981D01*
X4995401Y914815D01*
X5020835Y908000D01*
X5047165D01*
X5072598Y914815D01*
X5095401Y927981D01*
X5114019Y946599D01*
X5127185Y969402D01*
X5134000Y994835D01*
Y1021166D01*
X5127185Y1046599D01*
X5114019Y1069401D01*
X5095401Y1088020D01*
X5072598Y1101185D01*
X5047165Y1108000D01*
D02*
G37*
G36*
X4793165D02*
X4766835D01*
X4741401Y1101185D01*
X4718599Y1088020D01*
X4699980Y1069401D01*
X4686815Y1046599D01*
X4680000Y1021166D01*
Y994835D01*
X4686815Y969402D01*
X4699980Y946599D01*
X4718599Y927981D01*
X4741401Y914815D01*
X4766835Y908000D01*
X4793165D01*
X4818598Y914815D01*
X4841401Y927981D01*
X4860019Y946599D01*
X4873185Y969402D01*
X4880000Y994835D01*
Y1021166D01*
X4873185Y1046599D01*
X4860019Y1069401D01*
X4841401Y1088020D01*
X4818598Y1101185D01*
X4793165Y1108000D01*
D02*
G37*
G36*
X4539165D02*
X4512835D01*
X4487401Y1101185D01*
X4464599Y1088020D01*
X4445980Y1069401D01*
X4432815Y1046599D01*
X4426000Y1021166D01*
Y994835D01*
X4432815Y969402D01*
X4445980Y946599D01*
X4464599Y927981D01*
X4487401Y914815D01*
X4512835Y908000D01*
X4539165D01*
X4564598Y914815D01*
X4587401Y927981D01*
X4606019Y946599D01*
X4619185Y969402D01*
X4626000Y994835D01*
Y1021166D01*
X4619185Y1046599D01*
X4606019Y1069401D01*
X4587401Y1088020D01*
X4564598Y1101185D01*
X4539165Y1108000D01*
D02*
G37*
G36*
X4285165D02*
X4258835D01*
X4233401Y1101185D01*
X4210599Y1088020D01*
X4191980Y1069401D01*
X4178815Y1046599D01*
X4172000Y1021166D01*
Y994835D01*
X4178815Y969402D01*
X4191980Y946599D01*
X4210599Y927981D01*
X4233401Y914815D01*
X4258835Y908000D01*
X4285165D01*
X4310598Y914815D01*
X4333401Y927981D01*
X4352019Y946599D01*
X4365185Y969402D01*
X4372000Y994835D01*
Y1021166D01*
X4365185Y1046599D01*
X4352019Y1069401D01*
X4333401Y1088020D01*
X4310598Y1101185D01*
X4285165Y1108000D01*
D02*
G37*
G36*
X4031165D02*
X4004835D01*
X3979401Y1101185D01*
X3956599Y1088020D01*
X3937980Y1069401D01*
X3924815Y1046599D01*
X3918000Y1021166D01*
Y994835D01*
X3924815Y969402D01*
X3937980Y946599D01*
X3956599Y927981D01*
X3979401Y914815D01*
X4004835Y908000D01*
X4031165D01*
X4056598Y914815D01*
X4079401Y927981D01*
X4098019Y946599D01*
X4111185Y969402D01*
X4118000Y994835D01*
Y1021166D01*
X4111185Y1046599D01*
X4098019Y1069401D01*
X4079401Y1088020D01*
X4056598Y1101185D01*
X4031165Y1108000D01*
D02*
G37*
G36*
X3777165D02*
X3750835D01*
X3725401Y1101185D01*
X3702599Y1088020D01*
X3683980Y1069401D01*
X3670815Y1046599D01*
X3664000Y1021166D01*
Y994835D01*
X3670815Y969402D01*
X3683980Y946599D01*
X3702599Y927981D01*
X3725401Y914815D01*
X3750835Y908000D01*
X3777165D01*
X3802598Y914815D01*
X3825401Y927981D01*
X3844019Y946599D01*
X3857185Y969402D01*
X3864000Y994835D01*
Y1021166D01*
X3857185Y1046599D01*
X3844019Y1069401D01*
X3825401Y1088020D01*
X3802598Y1101185D01*
X3777165Y1108000D01*
D02*
G37*
G36*
X3523165D02*
X3496835D01*
X3471401Y1101185D01*
X3448599Y1088020D01*
X3429980Y1069401D01*
X3416815Y1046599D01*
X3410000Y1021166D01*
Y994835D01*
X3416815Y969402D01*
X3429980Y946599D01*
X3448599Y927981D01*
X3471401Y914815D01*
X3496835Y908000D01*
X3523165D01*
X3548598Y914815D01*
X3571401Y927981D01*
X3590019Y946599D01*
X3603185Y969402D01*
X3610000Y994835D01*
Y1021166D01*
X3603185Y1046599D01*
X3590019Y1069401D01*
X3571401Y1088020D01*
X3548598Y1101185D01*
X3523165Y1108000D01*
D02*
G37*
G36*
X3269165D02*
X3242835D01*
X3217401Y1101185D01*
X3194599Y1088020D01*
X3175980Y1069401D01*
X3162815Y1046599D01*
X3156000Y1021166D01*
Y994835D01*
X3162815Y969402D01*
X3175980Y946599D01*
X3194599Y927981D01*
X3217401Y914815D01*
X3242835Y908000D01*
X3269165D01*
X3294598Y914815D01*
X3317401Y927981D01*
X3336019Y946599D01*
X3349185Y969402D01*
X3356000Y994835D01*
Y1021166D01*
X3349185Y1046599D01*
X3336019Y1069401D01*
X3317401Y1088020D01*
X3294598Y1101185D01*
X3269165Y1108000D01*
D02*
G37*
G36*
X3015165D02*
X2988835D01*
X2963401Y1101185D01*
X2940599Y1088020D01*
X2921980Y1069401D01*
X2908815Y1046599D01*
X2902000Y1021166D01*
Y994835D01*
X2908815Y969402D01*
X2921980Y946599D01*
X2940599Y927981D01*
X2963401Y914815D01*
X2988835Y908000D01*
X3015165D01*
X3040598Y914815D01*
X3063401Y927981D01*
X3082019Y946599D01*
X3095185Y969402D01*
X3102000Y994835D01*
Y1021166D01*
X3095185Y1046599D01*
X3082019Y1069401D01*
X3063401Y1088020D01*
X3040598Y1101185D01*
X3015165Y1108000D01*
D02*
G37*
G36*
X2761165D02*
X2734835D01*
X2709401Y1101185D01*
X2686599Y1088020D01*
X2667980Y1069401D01*
X2654815Y1046599D01*
X2648000Y1021166D01*
Y994835D01*
X2654815Y969402D01*
X2667980Y946599D01*
X2686599Y927981D01*
X2709401Y914815D01*
X2734835Y908000D01*
X2761165D01*
X2786598Y914815D01*
X2809401Y927981D01*
X2828019Y946599D01*
X2841185Y969402D01*
X2848000Y994835D01*
Y1021166D01*
X2841185Y1046599D01*
X2828019Y1069401D01*
X2809401Y1088020D01*
X2786598Y1101185D01*
X2761165Y1108000D01*
D02*
G37*
G36*
X2507165D02*
X2480835D01*
X2455401Y1101185D01*
X2432599Y1088020D01*
X2413980Y1069401D01*
X2400815Y1046599D01*
X2394000Y1021166D01*
Y994835D01*
X2400815Y969402D01*
X2413980Y946599D01*
X2432599Y927981D01*
X2455401Y914815D01*
X2480835Y908000D01*
X2507165D01*
X2532598Y914815D01*
X2555401Y927981D01*
X2574019Y946599D01*
X2587185Y969402D01*
X2594000Y994835D01*
Y1021166D01*
X2587185Y1046599D01*
X2574019Y1069401D01*
X2555401Y1088020D01*
X2532598Y1101185D01*
X2507165Y1108000D01*
D02*
G37*
G36*
X2253165D02*
X2226835D01*
X2201401Y1101185D01*
X2178599Y1088020D01*
X2159980Y1069401D01*
X2146815Y1046599D01*
X2140000Y1021166D01*
Y994835D01*
X2146815Y969402D01*
X2159980Y946599D01*
X2178599Y927981D01*
X2201401Y914815D01*
X2226835Y908000D01*
X2253165D01*
X2278598Y914815D01*
X2301401Y927981D01*
X2320019Y946599D01*
X2333185Y969402D01*
X2340000Y994835D01*
Y1021166D01*
X2333185Y1046599D01*
X2320019Y1069401D01*
X2301401Y1088020D01*
X2278598Y1101185D01*
X2253165Y1108000D01*
D02*
G37*
G36*
X1999165D02*
X1972835D01*
X1947401Y1101185D01*
X1924599Y1088020D01*
X1905980Y1069401D01*
X1892815Y1046599D01*
X1886000Y1021166D01*
Y994835D01*
X1892815Y969402D01*
X1905980Y946599D01*
X1924599Y927981D01*
X1947401Y914815D01*
X1972835Y908000D01*
X1999165D01*
X2024598Y914815D01*
X2047401Y927981D01*
X2066019Y946599D01*
X2079185Y969402D01*
X2086000Y994835D01*
Y1021166D01*
X2079185Y1046599D01*
X2066019Y1069401D01*
X2047401Y1088020D01*
X2024598Y1101185D01*
X1999165Y1108000D01*
D02*
G37*
G36*
X1745165D02*
X1718835D01*
X1693401Y1101185D01*
X1670599Y1088020D01*
X1651980Y1069401D01*
X1638815Y1046599D01*
X1632000Y1021166D01*
Y994835D01*
X1638815Y969402D01*
X1651980Y946599D01*
X1670599Y927981D01*
X1693401Y914815D01*
X1718835Y908000D01*
X1745165D01*
X1770598Y914815D01*
X1793401Y927981D01*
X1812019Y946599D01*
X1825185Y969402D01*
X1832000Y994835D01*
Y1021166D01*
X1825185Y1046599D01*
X1812019Y1069401D01*
X1793401Y1088020D01*
X1770598Y1101185D01*
X1745165Y1108000D01*
D02*
G37*
G36*
X1491165D02*
X1464835D01*
X1439401Y1101185D01*
X1416599Y1088020D01*
X1397980Y1069401D01*
X1384815Y1046599D01*
X1378000Y1021166D01*
Y994835D01*
X1384815Y969402D01*
X1397980Y946599D01*
X1416599Y927981D01*
X1439401Y914815D01*
X1464835Y908000D01*
X1491165D01*
X1516598Y914815D01*
X1539401Y927981D01*
X1558019Y946599D01*
X1571185Y969402D01*
X1578000Y994835D01*
Y1021166D01*
X1571185Y1046599D01*
X1558019Y1069401D01*
X1539401Y1088020D01*
X1516598Y1101185D01*
X1491165Y1108000D01*
D02*
G37*
G36*
X6822036Y780000D02*
X6777963D01*
X6734433Y773105D01*
X6692517Y759486D01*
X6653248Y739478D01*
X6617592Y713572D01*
X6586428Y682408D01*
X6560522Y646752D01*
X6540514Y607483D01*
X6526894Y565567D01*
X6520000Y522037D01*
Y477963D01*
X6526894Y434433D01*
X6540514Y392517D01*
X6560522Y353248D01*
X6586428Y317592D01*
X6617592Y286428D01*
X6653248Y260522D01*
X6692517Y240514D01*
X6734433Y226895D01*
X6777963Y220000D01*
X6822036D01*
X6865567Y226895D01*
X6907483Y240514D01*
X6946752Y260522D01*
X6982408Y286428D01*
X7013572Y317592D01*
X7039477Y353248D01*
X7059486Y392517D01*
X7073105Y434433D01*
X7080000Y477963D01*
Y522037D01*
X7073105Y565567D01*
X7059486Y607483D01*
X7039477Y646752D01*
X7013572Y682408D01*
X6982408Y713572D01*
X6946752Y739478D01*
X6907483Y759486D01*
X6865567Y773105D01*
X6822036Y780000D01*
D02*
G37*
G36*
X1422037D02*
X1377963D01*
X1334433Y773105D01*
X1292517Y759486D01*
X1253248Y739478D01*
X1217592Y713572D01*
X1186428Y682408D01*
X1160522Y646752D01*
X1140514Y607483D01*
X1126895Y565567D01*
X1120000Y522037D01*
Y477963D01*
X1126895Y434433D01*
X1140514Y392517D01*
X1160522Y353248D01*
X1186428Y317592D01*
X1217592Y286428D01*
X1253248Y260522D01*
X1292517Y240514D01*
X1334433Y226895D01*
X1377963Y220000D01*
X1422037D01*
X1465567Y226895D01*
X1507483Y240514D01*
X1546752Y260522D01*
X1582408Y286428D01*
X1613572Y317592D01*
X1639478Y353248D01*
X1659486Y392517D01*
X1673105Y434433D01*
X1680000Y477963D01*
Y522037D01*
X1673105Y565567D01*
X1659486Y607483D01*
X1639478Y646752D01*
X1613572Y682408D01*
X1582408Y713572D01*
X1546752Y739478D01*
X1507483Y759486D01*
X1465567Y773105D01*
X1422037Y780000D01*
D02*
G37*
%LPD*%
D10*
X3945000Y2700000D02*
D03*
X3305000Y2698000D02*
D03*
D11*
X5392725Y2398124D02*
D03*
X5202725D02*
D03*
D12*
X3440000Y3400000D02*
D03*
X3800000D02*
D03*
D13*
X4900000Y3370000D02*
D03*
Y2830000D02*
D03*
D14*
X2070001Y2200000D02*
D03*
X2239998D02*
D03*
X2410000D02*
D03*
X2580002D02*
D03*
X2749999D02*
D03*
D15*
X2410000Y3305002D02*
D03*
D16*
X1100000Y3235000D02*
D03*
Y2365000D02*
D03*
D17*
X4457500Y2395000D02*
D03*
X4772500D02*
D03*
D18*
X2239998Y2200000D02*
Y2543137D01*
X2286861Y2590000D02*
X3197000D01*
X2239998Y2543137D02*
X2286861Y2590000D01*
X3197000D02*
X3305000Y2698000D01*
X1100000Y2260000D02*
Y2365000D01*
Y2215000D02*
Y2260000D01*
X595000Y1513650D02*
X606900Y1501749D01*
X595000Y1513650D02*
Y1710000D01*
X1100000Y2215000D01*
Y2260000D02*
X1160000Y2200000D01*
X3330000Y2698000D02*
X3440000Y2808000D01*
X3305000Y2698000D02*
X3330000D01*
X3440000Y2808000D02*
Y3400000D01*
X1160000Y2200000D02*
X2070001D01*
X1040000Y2553100D02*
X1100000Y2493100D01*
Y2365000D02*
Y2493100D01*
D19*
X4900000Y2745000D02*
X4941465Y2703536D01*
X4945000Y2700000D02*
X5424645D01*
X5425078Y2700433D02*
X5460433D01*
X5345710Y2695000D02*
X5392725Y2647986D01*
X5460433Y2700433D02*
X5470000Y2710000D01*
X5424645Y2700000D02*
X5425078Y2700433D01*
X3945000Y2019290D02*
Y2700000D01*
X3915710Y1990000D02*
X3945000Y2019290D01*
X2580002D02*
Y2200000D01*
Y2019290D02*
X2609292Y1990000D01*
X3915710D01*
X4772500Y2395000D02*
X4775624Y2398124D01*
X5202725D01*
X5392725D02*
Y2647986D01*
X4900000Y2745000D02*
Y2830000D01*
X3945000Y2700000D02*
X4855000D01*
X4900000Y2745000D01*
D20*
X6600000Y1070000D02*
D03*
Y2086000D02*
D03*
Y1578000D02*
D03*
Y3102000D02*
D03*
Y2594000D02*
D03*
Y4118000D02*
D03*
Y4626000D02*
D03*
Y3610000D02*
D03*
D21*
X6800000Y5200000D02*
D03*
Y500000D02*
D03*
X1400000D02*
D03*
Y5200000D02*
D03*
D22*
X4526000Y4110000D02*
D03*
X4272000D02*
D03*
X4018000D02*
D03*
X3764000D02*
D03*
X3510000D02*
D03*
X3256000D02*
D03*
X2748000D02*
D03*
X1478000D02*
D03*
X1732000D02*
D03*
X1986000D02*
D03*
X2240000D02*
D03*
X2494000D02*
D03*
X3002000D02*
D03*
X4780000D02*
D03*
X5034000D02*
D03*
X4526000Y1570000D02*
D03*
X4272000D02*
D03*
X4018000D02*
D03*
X3764000D02*
D03*
X3510000D02*
D03*
X3256000D02*
D03*
X2748000D02*
D03*
X1478000D02*
D03*
X1732000D02*
D03*
X1986000D02*
D03*
X2240000D02*
D03*
X2494000D02*
D03*
X3002000D02*
D03*
X4780000D02*
D03*
X5034000D02*
D03*
X2748000Y1008000D02*
D03*
X3002000D02*
D03*
X3256000D02*
D03*
X3510000D02*
D03*
X3764000D02*
D03*
X4018000D02*
D03*
X4272000D02*
D03*
X4526000D02*
D03*
X4780000D02*
D03*
X5034000D02*
D03*
X2748000Y4672000D02*
D03*
X3002000D02*
D03*
X3256000D02*
D03*
X3510000D02*
D03*
X3764000D02*
D03*
X4018000D02*
D03*
X4272000D02*
D03*
X4526000D02*
D03*
X4780000D02*
D03*
X5034000D02*
D03*
X2494000Y1008000D02*
D03*
X2240000D02*
D03*
X1986000D02*
D03*
X1732000D02*
D03*
X1478000D02*
D03*
X2494000Y4672000D02*
D03*
X2240000D02*
D03*
X1986000D02*
D03*
X1732000D02*
D03*
X1478000D02*
D03*
D23*
X606900Y1501749D02*
D03*
D24*
Y904849D02*
D03*
X1089500Y1209649D02*
D03*
D25*
X2200000Y500000D02*
D03*
X5800000Y2900000D02*
D03*
X5400000Y1400000D02*
D03*
X2300000Y1900000D02*
D03*
X2000000D02*
D03*
X5470000Y2710000D02*
D03*
X1610000Y4400000D02*
D03*
%TF.MD5,0caee1b3d656fe499337be902b000ed5*%
M02*
