M48
;Layer_Color=9474304
;FILE_FORMAT=4:4
METRIC,LZ
;TYPE=PLATED
T1F00S00C0.7112
T2F00S00C1.0000
T3F00S00C1.5000
T4F00S00C2.6000
T5F00S00C3.0000
T6F00S00C3.1000
%
T01
X00680812Y00761812
T02
X00186725Y000712
Y000966
X00482
Y000712
Y00122
Y001474
Y001728
X00491Y002608
X004656
X004402
X004148
Y00337
X004402
X004656
X00491
X005164
X005418
X005672
X005926
X00618
X006434
Y002608
X00618
X005926
X005672
X005418
X005164
X006012Y00162
X006266
X00652
X006774
X007028
X007282
X003894Y002608
X00364
X003386
X003132
X002878
Y00337
X003132
X003386
X00364
X003894
X00186725Y001474
Y00122
X002878Y00591
X003132
X003386
X00364
X003894
Y006672
X00364
X003386
X003132
X002878
X004148
X004402
X004656
X00491
X005164
X005418
X005672
X005926
X00618
X006434
Y00591
X00618
X005926
X005672
X005418
X005164
X00491
X004656
X004402
X004148
T03
X00765Y006772
Y00728
T04
X00106965Y0070905
X00076485Y0075731
T05
X00042Y00042
X00862
X00042Y00862
X00862
T06
X00136175Y0075731
M30
