M48
;Layer_Color=9474304
;FILE_FORMAT=4:4
METRIC,LZ
;TYPE=PLATED
T1F00S00C0.5000
T2F00S00C1.0000
T3F00S00C1.2000
T4F00S00C2.6000
T5F00S00C3.0000
T6F00S00C3.1000
%
T01
X0054Y0014
X00547Y00271
X0058Y0029
X0023Y0019
X002
X0022Y0005
X00161Y0044
T02
X003002Y001008
X003256
X00351
X003764
X004018
X004272
X004526
X00478
X005034
Y00157
X00478
X004526
X004272
X004018
X003764
X00351
X003256
X003002
X002748
X002494
X00224
X001986
X001732
X001478
Y001008
X001732
X001986
X00224
X002494
X002748
Y00411
X002494
X00224
X001986
X001732
X001478
Y004672
X001732
X001986
X00224
X002494
X002748
X003002
X003256
X00351
X003764
X004018
X004272
X004526
X00478
X005034
Y00411
X00478
X004526
X004272
X004018
X003764
X00351
X003256
X003002
T03
X0066Y00107
Y001578
Y002086
Y002594
Y003102
Y00361
Y004118
Y004626
T04
X0006069Y00090485
X0010895Y00120965
T05
X0068Y0005
X0014
Y0052
X0068
T06
X0006069Y00150175
M30
